<?xml version="1.0" encoding="UTF-8"?>
<svg version="1.1" xmlns="http://www.w3.org/2000/svg" width="2000" height="2000">
<path d="M0 0 C1.42113098 0.12728485 1.42113098 0.12728485 2.87097168 0.25714111 C95.27730886 8.61801028 186.74470549 29.22598433 355.64794922 99.35546875 C357.77811851 100.40053942 359.90978875 101.44256048 362.04345703 102.48046875 C375.44346229 108.99902011 388.43684962 116.08054973 401.35888672 123.49804688 C404.44672451 125.25404411 407.5616191 126.95549765 410.68286133 128.65112305 C440.99495041 145.18151485 470.09431902 164.68850658 498 185 C498.73750488 185.53463867 499.47500977 186.06927734 500.23486328 186.62011719 C525.03691895 204.63095075 548.82714351 223.83145987 571.81640625 244.1015625 C573.62502521 245.6739933 575.4464737 247.22713992 577.27734375 248.7734375 C583.33415133 253.89937319 589.25708316 259.0204993 594.7421875 264.76953125 C596.64227172 266.64660406 598.57594627 268.37223429 600.60180664 270.10839844 C605.130003 274.0584585 609.38700246 278.24268102 613.62890625 282.49609375 C614.8189048 283.68465721 614.8189048 283.68465721 616.03294373 284.89723206 C617.69889081 286.56250283 619.36359256 288.22902029 621.02709961 289.89672852 C623.55536134 292.43034622 626.08891661 294.95858167 628.62304688 297.48632812 C630.2503207 299.11426283 631.87728425 300.74250775 633.50390625 302.37109375 C634.25201065 303.11717392 635.00011505 303.86325409 635.77088928 304.63194275 C639.8200662 308.69898548 643.70893962 312.85002915 647.44700623 317.20545959 C650.04942572 320.21264932 652.78021532 323.09930657 655.5 326 C660.09150696 330.92504463 664.63232877 335.87398585 669 341 C670.17369141 342.37285156 670.17369141 342.37285156 671.37109375 343.7734375 C674.26402015 347.16838435 677.13573885 350.58084939 680 354 C680.5460791 354.65178223 681.0921582 355.30356445 681.65478516 355.97509766 C689.82665171 365.75377879 697.70912478 375.7122629 705.39111328 385.87939453 C706.99935947 387.99915575 708.62031319 390.10850805 710.24609375 392.21484375 C762.73601114 460.24505829 806.4430947 536.47888633 910 910 C910.0835675 910.92292847 910.16713501 911.84585693 910.25323486 912.79675293 C915.30438897 969.35820753 915.11999753 1027.45419939 910 1084 C909.91514343 1084.94742065 909.83028687 1085.89484131 909.74285889 1086.87097168 C903.17206225 1159.49299663 889.22300789 1231.55613597 866.66674805 1300.94366455 C865.99460878 1303.01662722 865.32943607 1305.09171242 864.66601562 1307.16748047 C844.91373557 1368.86414898 818.91278536 1429.44429278 786.42138672 1485.52001953 C784.68875816 1488.5430427 783.02226475 1491.59887915 781.35986328 1494.66088867 C764.83795976 1524.98315767 745.31791248 1554.093054 725 1582 C724.44940918 1582.75877441 723.89881836 1583.51754883 723.33154297 1584.29931641 C712.17147602 1599.65170815 700.47795158 1614.49989391 688.47216797 1629.19580078 C687.17728489 1630.78273046 685.88709522 1632.37348737 684.59765625 1633.96484375 C675.94130634 1644.62483343 667.01638626 1655.02733013 657.66796875 1665.0859375 C655.60547588 1667.33867495 653.58335646 1669.61113406 651.578125 1671.9140625 C640.13339717 1685.03208634 627.79335764 1697.31066778 615.5 1709.625 C614.79650421 1710.33108398 614.09300842 1711.03716797 613.36819458 1711.76464844 C611.32133702 1713.81743529 609.27070574 1715.86637298 607.21875 1717.9140625 C606.61079086 1718.52400055 606.00283173 1719.1339386 605.37644958 1719.76235962 C601.66419915 1723.45502662 597.83448239 1726.96060727 593.86547852 1730.37606812 C590.66311237 1733.16378421 587.58937866 1736.088436 584.5 1739 C579.41421139 1743.76597866 574.31290334 1748.48656211 569 1753 C567.62908203 1754.17175781 567.62908203 1754.17175781 566.23046875 1755.3671875 C562.83439521 1758.26162932 559.4205613 1761.1345571 556 1764 C555.34821777 1764.5460791 554.69643555 1765.0921582 554.02490234 1765.65478516 C544.24622121 1773.82665171 534.2877371 1781.70912478 524.12060547 1789.39111328 C522.00084425 1790.99935947 519.89149195 1792.62031319 517.78515625 1794.24609375 C449.76524585 1846.7280608 373.51415823 1890.50417663 0 1994 C-0.94224426 1994.0835675 -1.88448853 1994.16713501 -2.85528564 1994.25323486 C-54.23037534 1998.72519361 -107.38695774 1999.50019162 -158.81878662 1995.18035889 C-161.16452349 1994.98639598 -163.51103527 1994.80513928 -165.85791016 1994.62548828 C-253.05812304 1987.87940423 -339.74234566 1969.84588668 -479 1918 C-480.6392041 1917.29593018 -480.6392041 1917.29593018 -482.31152344 1916.57763672 C-518.89338 1900.80475056 -554.9596826 1883.12085901 -589.16650391 1862.68652344 C-591.9705937 1861.0175029 -594.78573046 1859.36898484 -597.60546875 1857.7265625 C-617.2559054 1846.25976734 -636.34198949 1834.01693186 -655 1821 C-655.71462402 1820.50290527 -656.42924805 1820.00581055 -657.16552734 1819.49365234 C-678.50187755 1804.63117291 -699.06429246 1788.91855231 -719.19580078 1772.47216797 C-720.78273046 1771.17728489 -722.37348737 1769.88709522 -723.96484375 1768.59765625 C-734.62483343 1759.94130634 -745.02733013 1751.01638626 -755.0859375 1741.66796875 C-757.27385116 1739.66482528 -759.47966215 1737.70462073 -761.71948242 1735.76123047 C-774.08259413 1724.95631153 -785.75990978 1713.40392197 -797.34887695 1701.78149414 C-799.58885186 1699.5360842 -801.83422696 1697.29617161 -804.08007812 1695.05664062 C-805.53417542 1693.60188354 -806.98796303 1692.14681682 -808.44140625 1690.69140625 C-809.42748619 1689.70836266 -809.42748619 1689.70836266 -810.43348694 1688.70545959 C-814.24923732 1684.87057284 -817.88607358 1680.9290683 -821.41404724 1676.82749939 C-824.03081401 1673.8121891 -826.76956598 1670.91205112 -829.5 1668 C-834.09150696 1663.07495537 -838.63232877 1658.12601415 -843 1653 C-844.17369141 1651.62714844 -844.17369141 1651.62714844 -845.37109375 1650.2265625 C-848.26402015 1646.83161565 -851.13573885 1643.41915061 -854 1640 C-854.81911865 1639.02232666 -854.81911865 1639.02232666 -855.65478516 1638.02490234 C-863.82665171 1628.24622121 -871.70912478 1618.2877371 -879.39111328 1608.12060547 C-880.99935947 1606.00084425 -882.62031319 1603.89149195 -884.24609375 1601.78515625 C-921.64702314 1553.3112135 -953.54425565 1500.85854731 -981.29833984 1446.3359375 C-982.80903482 1443.37436847 -984.33365464 1440.42056581 -985.86328125 1437.46875 C-1026.6617301 1358.11434674 -1054.63728605 1270.05249645 -1084 1084 C-1084.0835675 1083.09638733 -1084.16713501 1082.19277466 -1084.25323486 1081.26177979 C-1089.43444547 1024.74936538 -1089.22494538 966.49716181 -1084 910 C-1083.91514343 909.06416077 -1083.83028687 908.12832153 -1083.74285889 907.16412354 C-1075.36140899 815.20169547 -1055.00836039 724.19266263 -984.61230469 554.27148438 C-983.10944326 551.22206839 -981.61978312 548.16656163 -980.1328125 545.109375 C-974.04822352 532.68039578 -967.38986061 520.64055113 -960.50195312 508.64111328 C-958.74595589 505.55327549 -957.04450235 502.4383809 -955.34887695 499.31713867 C-938.81848515 469.00504959 -919.31149342 439.90568098 -899 412 C-898.46536133 411.26249512 -897.93072266 410.52499023 -897.37988281 409.76513672 C-881.57362538 387.99892165 -864.8163681 367.06049004 -847.36083984 346.59912109 C-845.95021698 344.94150004 -844.54712211 343.27770172 -843.14453125 341.61328125 C-836.34463016 333.57415642 -829.27242121 325.83437817 -822.04003906 318.18359375 C-820.51985897 316.55644072 -819.01357233 314.91628614 -817.51464844 313.26953125 C-809.45177952 304.41251091 -801.06065368 295.90702005 -792.58056641 287.45019531 C-790.23613323 285.11116519 -787.89715129 282.76677803 -785.55859375 280.421875 C-784.04459166 278.90853313 -782.5302797 277.39550119 -781.015625 275.8828125 C-780.32897766 275.19414093 -779.64233032 274.50546936 -778.93487549 273.79592896 C-775.01957356 269.89928722 -771.00555401 266.17539602 -766.81610107 262.57455444 C-763.80361092 259.96273408 -760.90811106 257.22676534 -758 254.5 C-753.07464298 249.90780598 -748.11273466 245.38366239 -743 241 C-741.96587775 240.10056855 -740.93205147 239.20079676 -739.8984375 238.30078125 C-733.43161459 232.69053356 -726.87037199 227.25117144 -720.10644531 222.00268555 C-716.37462266 219.10160541 -712.73219828 216.11886935 -709.125 213.0625 C-702.66876592 207.64676863 -695.95287607 202.6147613 -689.17578125 197.609375 C-686.96647821 195.97520471 -684.76412553 194.33199516 -682.5625 192.6875 C-643.11190601 163.30787586 -601.45777954 137.03340516 -558 114 C-557.0394873 113.49082031 -556.07897461 112.98164062 -555.08935547 112.45703125 C-548.41468953 108.9286534 -541.71308489 105.45460647 -535 102 C-534.07880371 101.52240234 -533.15760742 101.04480469 -532.20849609 100.55273438 C-494.26835427 80.92875201 -454.36937059 64.86990801 -414 51 C-412.73895824 50.56224289 -411.47805624 50.12408295 -410.21728516 49.68554688 C-333.93361153 23.20231874 -254.3681302 7.19824254 -174 0 C-173.07707153 -0.0835675 -172.15414307 -0.16713501 -171.20324707 -0.25323486 C-114.64179247 -5.30438897 -56.54580061 -5.11999753 0 0 Z " fill="#636365" transform="translate(1087,3)"/>
<path d="M0 0 C0.92664459 -0.00012085 1.85328918 -0.0002417 2.80801392 -0.00036621 C17.80456739 0.02744981 32.08402324 1.020038 46.75 4.375 C47.44867187 4.52453125 48.14734375 4.6740625 48.8671875 4.828125 C53.24089321 5.77663949 57.49797122 6.99105087 61.75 8.375 C62.53842285 8.62701172 63.3268457 8.87902344 64.13916016 9.13867188 C91.04079842 17.89193835 114.66431149 31.63064887 135.75 50.375 C136.74128906 51.24382812 137.73257812 52.11265625 138.75390625 53.0078125 C144.17998515 57.83591535 149.15895128 62.75235937 153.75 68.375 C154.17893555 68.88627441 154.60787109 69.39754883 155.04980469 69.92431641 C185.10110438 105.76410273 202.2376196 149.69189153 202.125 196.5625 C202.1237915 197.49118896 202.12258301 198.41987793 202.12133789 199.37670898 C201.92511659 255.05091401 180.10752571 303.57978592 141.75 343.375 C139.19103367 345.8570435 136.51187685 348.12250484 133.75 350.375 C132.71981373 351.25232436 131.68988947 352.12995643 130.66015625 353.0078125 C106.10857861 373.61507209 68.76220871 395.8498706 35.75 395.375 C35.30592349 351.84316703 35.30592349 351.84316703 43.69726562 336.4519043 C47.63134078 328.69049953 49.6582043 320.23580172 51.625 311.8125 C53.78026391 302.88473107 56.32506671 294.23225316 59.328125 285.55859375 C60.93224462 280.91199391 62.29005649 276.20781088 63.63818359 271.48193359 C64.99546215 266.78974995 66.4662611 262.14416135 67.9921875 257.50390625 C68.39397217 256.27849121 68.79575684 255.05307617 69.2097168 253.79052734 C70.00846273 251.36522402 70.8142472 248.94222362 71.62817383 246.52197266 C75.06596787 236.06568849 77.14025791 225.90175724 77.0625 214.875 C77.05831055 214.0188208 77.05412109 213.1626416 77.04980469 212.28051758 C76.92034005 204.75710713 75.91658646 197.51646539 74.66796875 190.109375 C73.60213758 183.71669246 72.84884827 177.28760817 72.06390381 170.85598755 C70.65862791 159.43347246 68.97649865 148.17397421 66.35351562 136.96191406 C65.35346662 132.67529624 64.39128941 128.38023563 63.42919922 124.08496094 C62.91031217 121.77186519 62.38627478 119.45991591 61.85595703 117.14941406 C60.61529769 111.66361698 59.53514272 106.21105736 58.72265625 100.64453125 C57.9351112 95.27857366 56.78881503 90.15094942 55.3125 84.9375 C53.78813527 79.43054105 52.46927493 74.01261951 51.5 68.375 C49.9252783 60.67236127 46.50985743 54.0096997 43.02734375 47.0234375 C40.46405796 41.87989754 38.32300789 36.60832269 36.234375 31.2578125 C34.2430519 27.39045344 31.68397168 24.34198584 27.75 22.375 C22.83003072 21.84381748 18.97672403 21.62394447 14.6875 24.25 C10.33575259 29.02288425 11.22356609 35.40167564 11.32421875 41.5390625 C11.70658185 48.58288595 14.66060089 54.1053371 17.75 60.375 C18.97885084 63.84433142 19.60519568 67.29554963 20.09375 70.9375 C21.2324808 79.34658896 23.20477716 87.35883863 25.45410156 95.53735352 C29.31586171 109.74382225 31.20860441 122.908903 31.375 137.5625 C31.41169789 139.91720102 31.45230249 142.27174668 31.49765015 144.626297 C31.52454832 146.07418993 31.5460379 147.52219711 31.56118774 148.97026062 C31.61269747 152.2429477 31.75338719 155.24271692 32.75 158.375 C33.47179443 158.48569824 34.19358887 158.59639648 34.93725586 158.71044922 C38.18884647 159.21440512 41.43811704 159.73200905 44.6875 160.25 C45.82380859 160.42402344 46.96011719 160.59804688 48.13085938 160.77734375 C49.21044922 160.95136719 50.29003906 161.12539063 51.40234375 161.3046875 C52.40257568 161.46179199 53.40280762 161.61889648 54.43334961 161.78076172 C55.19784424 161.97686035 55.96233887 162.17295898 56.75 162.375 C57.08 163.035 57.41 163.695 57.75 164.375 C44.48882048 162.86202631 31.59777708 161.04845731 18.75 157.375 C18.75 157.045 18.75 156.715 18.75 156.375 C26.17857143 156.23214286 26.17857143 156.23214286 29.75 157.375 C29.59080078 156.69937012 29.43160156 156.02374023 29.26757812 155.32763672 C28.66673676 151.90000679 28.5517511 148.61223608 28.46875 145.1328125 C28.45034058 144.44621552 28.43193115 143.75961853 28.41296387 143.05221558 C28.35455632 140.86822578 28.30162472 138.68415998 28.25 136.5 C28.1817732 133.6274606 28.10805026 130.755134 28.03125 127.8828125 C28.00095703 126.61066895 27.97066406 125.33852539 27.93945312 124.02783203 C27.75143231 120.40261634 27.31995197 116.95565982 26.75 113.375 C25.29045595 116.18551372 24.08239771 119.00457194 22.98046875 121.97265625 C22.65135498 122.85099121 22.32224121 123.72932617 21.9831543 124.63427734 C21.46555542 126.02187256 21.46555542 126.02187256 20.9375 127.4375 C18.79732097 133.15336172 16.65992371 138.78025236 13.9375 144.25 C10.53200036 151.42916139 7.85210861 161.40118844 8.75 169.375 C10.01501463 171.66226156 10.01501463 171.66226156 11.75 173.6875 C12.306875 174.38488281 12.86375 175.08226562 13.4375 175.80078125 C13.870625 176.32027344 14.30375 176.83976563 14.75 177.375 C14.42 178.035 14.09 178.695 13.75 179.375 C12.99074219 178.45976563 12.23148438 177.54453125 11.44921875 176.6015625 C10.44551608 175.40087146 9.44159858 174.20035997 8.4375 173 C7.93798828 172.39671875 7.43847656 171.7934375 6.92382812 171.171875 C6.43720703 170.59179688 5.95058594 170.01171875 5.44921875 169.4140625 C4.78152466 168.61282959 4.78152466 168.61282959 4.1003418 167.79541016 C1.86735188 165.44655184 0.14474337 164.42763245 -3.0625 164 C-7.15749627 164.48176427 -9.0813705 165.7574365 -12.25 168.375 C-15.86129021 173.05991703 -17.39198085 176.63352767 -17.34765625 182.484375 C-17.34443359 183.23847656 -17.34121094 183.99257813 -17.33789062 184.76953125 C-17.32951172 185.54683594 -17.32113281 186.32414063 -17.3125 187.125 C-17.30573242 188.31416016 -17.30573242 188.31416016 -17.29882812 189.52734375 C-17.28708565 191.47659508 -17.26915146 193.42580738 -17.25 195.375 C-20.90087106 189.89869341 -19.8721306 181.81747262 -19.25 175.375 C-17.93079793 169.86910872 -14.94108945 166.28906381 -10.17578125 163.2890625 C-6.66508537 161.62272815 -4.1831997 161.31256826 -0.25 161.375 C2.1207604 162.4622277 3.71194371 163.69360356 5.75 165.375 C8.82482752 156.07730725 10.84186468 146.68179054 7 137.3125 C4.71604712 132.8495108 2.51535508 130.96345169 -2.25 129.375 C-8.45871911 128.62567183 -12.14821437 129.63627277 -17.2109375 133.359375 C-20.96783223 137.07308703 -22.53970807 141.4571276 -24.25 146.375 C-24.85521484 148.00115234 -24.85521484 148.00115234 -25.47265625 149.66015625 C-27.85396308 156.56190995 -28.28588681 161.25275814 -27.25 168.375 C-27.02958119 170.25340977 -26.81365715 172.13235088 -26.6015625 174.01171875 C-26.36148129 176.02889764 -26.11922317 178.0458184 -25.875 180.0625 C-25.68091553 181.66557007 -25.68091553 181.66557007 -25.48291016 183.30102539 C-24.79860252 188.7354516 -23.97395446 193.99603241 -22.625 199.3125 C-21.07553778 205.8218387 -20.9319553 212.2168019 -20.75 218.875 C-21.10057907 233.96705783 -21.10057907 233.96705783 -15.546875 247.1953125 C-10.8245786 249.62070963 -5.39038422 249.0851418 -0.25 248.375 C3.30423623 245.84602422 4.38748421 244.46254738 5.75 240.375 C6.46306558 232.71394305 6.46306558 232.71394305 4.25 225.5625 C2.80613843 224.29912112 1.36135234 223.03679385 -0.0859375 221.77734375 C-0.75882813 221.19082031 -1.43171875 220.60429688 -2.125 220 C-2.81464844 219.40832031 -3.50429688 218.81664062 -4.21484375 218.20703125 C-8.34798386 214.48641184 -12.18758829 210.98013762 -13.25 205.375 C-10.69143793 207.83121958 -8.39079314 210.40390563 -6.125 213.125 C2.38657865 222.85511662 10.46970336 227.91824145 23.3125 229.0625 C25.12432205 229.17785946 26.93669091 229.28602206 28.75 229.375 C28.75 229.705 28.75 230.035 28.75 230.375 C26.54194476 230.4294452 24.33349446 230.46799283 22.125 230.5 C20.89523437 230.52320313 19.66546875 230.54640625 18.3984375 230.5703125 C14.80683959 230.3780428 12.08338825 229.67758556 8.75 228.375 C9.14992244 233.67397234 9.77146917 238.41548273 11.75 243.375 C15.49824333 246.12881143 19.23792268 247.36065704 23.75 248.375 C20.34068103 249.51143966 19.74664544 249.24247764 16.5625 247.9375 C15.84707031 247.65003906 15.13164063 247.36257813 14.39453125 247.06640625 C13.85183594 246.83824219 13.30914063 246.61007812 12.75 246.375 C12.50121094 246.92027344 12.25242187 247.46554687 11.99609375 248.02734375 C10.49322597 250.85876549 8.70339187 253.34940778 6.8125 255.9375 C6.12285156 256.88753906 5.43320312 257.83757812 4.72265625 258.81640625 C3.15632075 260.84798991 1.62141597 262.6326472 -0.25 264.375 C1.52464029 259.41855514 4.29540204 255.48639258 7.2890625 251.19140625 C8.95032479 247.98881237 9.03289182 245.93210276 8.75 242.375 C8.20859375 243.09042969 7.6671875 243.80585937 7.109375 244.54296875 C4.6029247 247.55153906 1.91959519 250.08071858 -1 252.6875 C-1.50660156 253.14189453 -2.01320313 253.59628906 -2.53515625 254.06445312 C-3.77032872 255.17144732 -5.00972716 256.27372325 -6.25 257.375 C-6.25 254.375 -6.25 254.375 -4.25 252.375 C-11.68499541 250.18860662 -11.68499541 250.18860662 -19.05078125 251.578125 C-21.2408857 253.07312453 -23.2739311 254.60851417 -25.25 256.375 C-25.91 256.045 -26.57 255.715 -27.25 255.375 C-24.28 253.395 -21.31 251.415 -18.25 249.375 C-19.24 246.9 -19.24 246.9 -20.25 244.375 C-20.25 243.385 -20.25 242.395 -20.25 241.375 C-20.90226563 241.42140625 -21.55453125 241.4678125 -22.2265625 241.515625 C-26.55203367 241.69425803 -29.56937454 241.68320775 -33.5625 239.875 C-38.1015072 235.65266772 -41.65667313 230.70381999 -42.25 224.375 C-48.17863717 225.54151426 -53.63798394 227.13019358 -59.25 229.375 C-59.25 228.715 -59.25 228.055 -59.25 227.375 C-57.90427347 226.69145636 -56.5478105 226.0290391 -55.1875 225.375 C-54.43339844 225.00375 -53.67929687 224.6325 -52.90234375 224.25 C-49.60413532 223.16193124 -46.70362445 223.31835419 -43.25 223.375 C-44.97304448 219.75461464 -46.71512495 216.14408204 -48.47460938 212.54125977 C-49.06930657 211.31687371 -49.65893333 210.09001037 -50.24316406 208.8605957 C-53.49179164 202.03348844 -56.05973052 196.79662106 -62.25 192.375 C-63.125 189.0625 -63.125 189.0625 -63.25 186.375 C-62.59 187.365 -61.93 188.355 -61.25 189.375 C-60.26 190.695 -59.27 192.015 -58.25 193.375 C-58.58 189.415 -58.91 185.455 -59.25 181.375 C-58.59 181.705 -57.93 182.035 -57.25 182.375 C-56.85855028 184.15487294 -56.54004441 185.9508183 -56.25 187.75 C-54.71987686 194.89317689 -51.68325842 200.62388591 -48.15966797 206.98046875 C-44.69692577 213.30252961 -41.97455129 219.70429612 -39.58300781 226.50073242 C-37.86227131 231.27572114 -36.04795586 235.97602207 -31.25 238.375 C-27.70828022 238.54169318 -27.70828022 238.54169318 -24.25 238.375 C-21.4249228 235.5499228 -22.81646354 227.45459811 -22.78369141 223.69580078 C-22.94022759 210.08469671 -25.54954212 196.8586689 -28.147995 183.53665161 C-28.81046676 180.07115024 -29.36046636 176.63729379 -29.71582031 173.12597656 C-29.78801788 172.44375031 -29.86021545 171.76152405 -29.93460083 171.05862427 C-30.12066821 169.19213499 -30.2783729 167.32287997 -30.43408203 165.45361328 C-31.45969601 161.58377718 -32.93752049 160.50630489 -36.25 158.375 C-39.72828724 156.63585638 -43.44683988 156.9245411 -47.25 157.375 C-55.10025677 161.22316509 -59.97806448 168.41187602 -63.33984375 176.28125 C-65.74620651 184.46081783 -64.52844092 192.74235003 -62.71484375 200.91015625 C-60.86667172 210.71012724 -62.96559839 219.02747024 -65.9609375 228.296875 C-75.5095829 257.91110463 -72.13486829 290.9009653 -62.5 320.0625 C-54.88891714 343.25344959 -48.9864469 366.8316172 -49.25 391.375 C-84.4153444 388.14882162 -124.27899493 359.13043672 -146.35546875 332.703125 C-146.98066406 331.93484375 -147.60585938 331.1665625 -148.25 330.375 C-149.16274688 329.28644699 -150.07550868 328.19790648 -150.98828125 327.109375 C-158.26012719 318.33713851 -164.56675337 309.2474556 -170.25 299.375 C-170.87237549 298.30088867 -170.87237549 298.30088867 -171.50732422 297.20507812 C-186.52214409 270.95079101 -196.30275207 240.91647576 -196.453125 210.50390625 C-196.45882507 209.58270493 -196.46452515 208.6615036 -196.47039795 207.71238708 C-196.47979034 205.77026495 -196.48635881 203.8281273 -196.49023438 201.88598633 C-196.49987107 198.97642663 -196.53092176 196.06759563 -196.5625 193.15820312 C-196.65242267 177.44189509 -194.82044751 162.66698464 -190.5625 147.5 C-190.17904419 146.12630249 -190.17904419 146.12630249 -189.7878418 144.72485352 C-181.32607536 115.40502199 -166.47030669 89.12100414 -146.25 66.375 C-145.38117187 65.38371094 -144.51234375 64.39242187 -143.6171875 63.37109375 C-138.78862188 57.94449478 -133.87089502 52.96882118 -128.25 48.375 C-127.75467773 47.95669922 -127.25935547 47.53839844 -126.74902344 47.10742188 C-90.99136405 16.91393145 -46.827638 -0.09368338 0 0 Z " fill="#FEFEFE" transform="translate(997.25,426.625)"/>
<path d="M0 0 C3.23581344 -0.00217461 6.47127826 -0.02036253 9.70703125 -0.03930664 C23.83134747 -0.07753531 37.72634353 0.69403666 51.76953125 2.18530273 C53.66832031 2.38192505 53.66832031 2.38192505 55.60546875 2.58251953 C58.5803178 2.90574484 61.54995575 3.25454539 64.51953125 3.62280273 C66.07353638 3.81338257 66.07353638 3.81338257 67.65893555 4.0078125 C83.83929288 6.03082459 99.82176138 8.78986567 115.76953125 12.18530273 C116.87941406 12.41902588 116.87941406 12.41902588 118.01171875 12.6574707 C134.72629398 16.22138622 150.50907976 21.47407672 165.76953125 29.18530273 C166.39988281 29.49725586 167.03023437 29.80920898 167.6796875 30.13061523 C196.29280974 44.35046993 220.49665955 68.67464278 230.828125 99.32592773 C237.97484674 124.35655123 233.07972744 151.04774833 220.95239258 173.72045898 C216.96960037 180.83223903 212.15493767 187.07814082 206.76953125 193.18530273 C206.06054688 194.01545898 205.3515625 194.84561523 204.62109375 195.70092773 C194.85901017 206.90794066 183.59971792 216.26261825 171.76953125 225.18530273 C171.21571777 225.60666504 170.6619043 226.02802734 170.09130859 226.4621582 C106.86631678 274.26824148 18.16278541 293.74691954 -59.23046875 301.18530273 C-61.11068739 301.3779105 -62.9908956 301.57062008 -64.87109375 301.76342773 C-75.02254106 302.77066909 -85.16137799 303.47054151 -95.35644531 303.84399414 C-99.73076388 304.01276979 -103.92092487 304.33878519 -108.23046875 305.18530273 C-102.4673716 312.57685018 -96.65694099 319.92384817 -90.73046875 327.18530273 C-86.2228458 332.70868138 -81.78204223 338.27714723 -77.39453125 343.89624023 C-73.35353863 349.05843312 -69.2171468 354.1400549 -65.07080078 359.21777344 C-61.52934489 363.56286336 -58.04928075 367.95007991 -54.60546875 372.37280273 C-49.32756103 379.13461634 -43.81682621 385.67750408 -38.23046875 392.18530273 C-37.2511486 393.32970266 -36.27198439 394.47423605 -35.29296875 395.61889648 C-33.28768082 397.96222054 -31.2795355 400.30305461 -29.26953125 402.64233398 C-27.23677651 405.00908798 -25.21128959 407.38177457 -23.19140625 409.75952148 C-17.48153278 416.47133698 -11.66288131 423.05204104 -5.6796875 429.52124023 C-3.66173096 431.71621051 -1.6824343 433.93196484 0.26953125 436.18530273 C11.67322829 449.28742274 23.47228636 462.25043854 37.125 473.04467773 C39.94310299 475.32580098 42.60446194 477.72755848 45.26953125 480.18530273 C50.59965517 485.07877808 56.12872441 489.65645651 61.76953125 494.18530273 C62.91330063 495.12084058 64.05650269 496.05707235 65.19921875 496.99389648 C93.06160474 519.7255078 124.27353005 537.10295673 157.76953125 550.18530273 C158.54844727 550.49161621 159.32736328 550.79792969 160.12988281 551.11352539 C179.01852372 558.48048004 197.74805315 563.05046248 217.76953125 566.18530273 C218.93097656 566.3825293 220.09242188 566.57975586 221.2890625 566.78295898 C249.35697558 570.02762234 280.1940618 567.42639122 303.40625 550.23217773 C312.53604873 542.68226761 320.16726556 531.87226384 322.76953125 520.18530273 C322.95257812 519.44280273 323.135625 518.70030273 323.32421875 517.93530273 C323.90214647 514.36634556 323.91650554 510.85199269 323.89453125 507.24780273 C323.89380615 506.13586548 323.89380615 506.13586548 323.89306641 505.00146484 C323.85530095 498.90755194 323.4194791 492.90868696 322.79296875 486.84545898 C322.78523438 485.96760742 322.7775 485.08975586 322.76953125 484.18530273 C324.76953125 482.18530273 324.76953125 482.18530273 328.08203125 481.74780273 C332.68436675 482.29384254 333.89452736 483.6531551 336.76953125 487.18530273 C344.26961666 498.43543085 343.4665241 519.4747454 341.12109375 532.33374023 C340.16670212 536.35523661 339.03648655 540.25417242 337.76953125 544.18530273 C337.51751953 545.00095703 337.26550781 545.81661133 337.00585938 546.65698242 C333.87884481 556.69417426 330.87457721 566.19773528 323.76953125 574.18530273 C323.12628906 574.93553711 322.48304688 575.68577148 321.8203125 576.45874023 C309.38184172 589.93183428 292.16682741 596.93662699 275.08203125 602.49780273 C273.97952026 602.86168091 273.97952026 602.86168091 272.85473633 603.23291016 C260.57772496 607.04915729 248.31628927 607.5290774 235.58203125 607.43530273 C234.80585449 607.43153625 234.02967773 607.42776978 233.22998047 607.42388916 C221.97631974 607.35985571 210.86005731 607.25489253 199.76953125 605.18530273 C198.80805176 605.00757324 197.84657227 604.82984375 196.85595703 604.64672852 C130.19862569 591.89162645 73.1012239 556.41140584 25.45703125 508.99780273 C24.79912598 508.34457031 24.1412207 507.69133789 23.46337891 507.01831055 C19.66477687 503.20722889 16.0646583 499.28249111 12.54907227 495.20996094 C9.43486575 491.666798 6.15184187 488.28384148 2.89453125 484.87280273 C-2.37583417 479.31774832 -7.40597155 473.71023766 -12.16796875 467.71264648 C-14.38344679 464.99784669 -16.72087342 462.43996865 -19.10546875 459.87280273 C-23.82725829 454.7356706 -28.12243892 449.3557847 -32.38671875 443.84155273 C-34.27483068 441.40056825 -36.18993022 438.98599852 -38.13671875 436.59155273 C-56.51467975 413.98678225 -72.69098575 389.60296706 -88.91796875 365.43530273 C-96.91108323 353.54154838 -104.90740889 341.65208422 -113.06454468 329.86993408 C-114.14472803 328.30918859 -115.22155755 326.74612336 -116.2980957 325.18286133 C-118.02618442 322.68938212 -119.77926496 320.21615904 -121.54296875 317.74780273 C-122.11080078 316.9221582 -122.67863281 316.09651367 -123.26367188 315.24584961 C-126.55831462 310.52554449 -126.55831462 310.52554449 -131.6484375 308.15014648 C-132.50050781 308.16174805 -133.35257813 308.17334961 -134.23046875 308.18530273 C-134.49496826 309.04929687 -134.75946777 309.91329102 -135.03198242 310.8034668 C-136.2320578 314.18978665 -137.68759034 317.14254233 -139.40625 320.29467773 C-140.06573327 321.51493528 -140.72498226 322.73531945 -141.3840332 323.95581055 C-141.90980453 324.92387634 -141.90980453 324.92387634 -142.44619751 325.91149902 C-177.41726512 381.80814305 -177.41726512 381.80814305 -192.23046875 443.18530273 C-190.66611587 447.20792443 -189.84323212 448.77679382 -186.23046875 451.18530273 C-180.60197283 451.95922092 -176.34337251 449.96008576 -171.79296875 446.81030273 C-163.03494679 439.95779183 -156.28489587 431.29987692 -149.33203125 422.70092773 C-141.25504119 413.03256045 -141.25504119 413.03256045 -136.23046875 410.18530273 C-133.48046875 409.99780273 -133.48046875 409.99780273 -131.23046875 410.18530273 C-130.38894777 415.6551891 -132.35624364 418.49977441 -135.39453125 422.77905273 C-137.2485446 425.20899364 -139.16549053 427.57359012 -141.10546875 429.93530273 C-144.13643504 433.65068077 -146.70042669 437.44936786 -149.16796875 441.56030273 C-155.4562552 452.01212259 -162.86521212 461.32709348 -171.23046875 470.18530273 C-171.91109375 470.9187793 -172.59171875 471.65225586 -173.29296875 472.40795898 C-179.0164042 478.38850189 -185.20318466 483.89802936 -193.78515625 484.38842773 C-216.25039391 484.79955284 -216.25039391 484.79955284 -223.98046875 478.62280273 C-227.59852258 474.70324442 -227.63654367 472.05369719 -227.5625 466.85717773 C-223.28956971 419.60359571 -194.47314306 370.73684159 -173.8137207 328.6418457 C-170.49371836 321.87471093 -167.22100499 315.10669846 -164.23046875 308.18530273 C-164.93171875 308.08733398 -165.63296875 307.98936523 -166.35546875 307.88842773 C-173.83487861 306.7096077 -180.19897094 305.29657681 -185.60546875 299.74780273 C-189.25769065 293.98852974 -190.18203636 288.79608036 -188.80078125 282.10327148 C-186.85351146 275.81671532 -182.85306703 272.47284863 -177.41796875 269.04077148 C-168.46875762 265.5409907 -156.73692919 268.3805761 -148.21875 272.05249023 C-146.8646927 272.71531549 -145.54159303 273.44115112 -144.23046875 274.18530273 C-143.97394531 273.33798584 -143.71742188 272.49066895 -143.453125 271.61767578 C-142.15577462 267.97561328 -140.50385589 264.65571967 -138.66796875 261.26733398 C-138.32044556 260.61691132 -137.97292236 259.96648865 -137.61486816 259.2963562 C-136.8737982 257.91069388 -136.13062104 256.52615675 -135.38549805 255.14266968 C-134.21805035 252.97474201 -133.05648817 250.80375471 -131.89648438 248.63183594 C-130.00934298 245.09982331 -128.11828314 241.5699315 -126.22558594 238.04089355 C-119.19206626 224.92551909 -112.28994339 211.78580131 -106.23046875 198.18530273 C-105.94768066 197.55817383 -105.66489258 196.93104492 -105.37353516 196.28491211 C-101.85404354 188.28947343 -100.81132481 181.12098736 -100.52783203 172.51635742 C-100.33328038 166.90215266 -99.70676049 162.29322554 -97.23046875 157.18530273 C-96.53630859 155.71770508 -96.53630859 155.71770508 -95.828125 154.22045898 C-91.55412776 145.76297268 -86.22008666 138.46086371 -80.23046875 131.18530273 C-79.5638623 130.36425049 -79.5638623 130.36425049 -78.88378906 129.52661133 C-61.98520607 108.79953762 -41.28796714 86.78065811 -15.23046875 78.18530273 C-14.59109375 77.96100586 -13.95171875 77.73670898 -13.29296875 77.50561523 C2.32249342 72.75591216 17.48879514 78.721307 31.2109375 86.03686523 C35.74816168 88.63259598 38.9519355 91.78396036 41.76953125 96.18530273 C42.40890625 97.17530273 43.04828125 98.16530273 43.70703125 99.18530273 C45.08464065 103.07502338 44.98212457 106.0751653 44.76953125 110.18530273 C44.00640625 110.02030273 43.24328125 109.85530273 42.45703125 109.68530273 C26.07120327 107.46349555 13.96160557 112.80379094 0.83203125 122.37280273 C-5.53482325 127.28554982 -11.43984083 132.61890048 -17.23046875 138.18530273 C-17.7414209 138.67434082 -18.25237305 139.16337891 -18.77880859 139.66723633 C-25.82134226 146.44476403 -32.1504024 153.52085427 -38.23046875 161.18530273 C-39.235701 162.4035822 -40.24368897 163.61959124 -41.25390625 164.83374023 C-49.0942448 174.287191 -56.27943552 184.06486357 -63.23046875 194.18530273 C-64.31486613 195.75187378 -65.39950642 197.31827671 -66.484375 198.88452148 C-81.16928604 220.15030356 -94.89741313 242.03092214 -108.08300781 264.25512695 C-109.38466746 266.44468465 -110.6946131 268.62920809 -112.00390625 270.81420898 C-112.93394842 272.37519564 -113.86364234 273.93638985 -114.79296875 275.49780273 C-115.45655396 276.60236816 -115.45655396 276.60236816 -116.13354492 277.72924805 C-118.42204899 281.21685787 -118.42204899 281.21685787 -119.23046875 285.18530273 C-113.09787804 287.56702349 -107.73969265 288.70524608 -101.16796875 288.62280273 C-100.28657227 288.61595459 -99.40517578 288.60910645 -98.49707031 288.60205078 C-77.10115985 288.11775881 -55.71388746 284.22104982 -34.8515625 279.73608398 C-31.15690372 278.95971008 -27.4461259 278.28956089 -23.73046875 277.62280273 C24.9863145 268.5135695 73.79326791 250.89222275 117.76953125 228.18530273 C118.40197754 227.86207031 119.03442383 227.53883789 119.68603516 227.20581055 C143.33444369 215.0892413 164.47607961 199.41492212 183.76953125 181.18530273 C184.64867187 180.36030273 185.5278125 179.53530273 186.43359375 178.68530273 C198.63028033 166.90398319 208.47720005 152.79332268 212.76953125 136.18530273 C212.95257812 135.48663086 213.135625 134.78795898 213.32421875 134.06811523 C216.28111025 114.92613339 212.5329085 97.32165749 201.8046875 81.23999023 C183.84845915 57.76648502 153.55703311 48.12593461 125.76953125 42.18530273 C124.92567871 42.00370605 124.08182617 41.82210937 123.21240234 41.63500977 C72.87007722 31.13712917 16.70240732 32.04611722 -34.23046875 38.18530273 C-35.80093611 38.3694522 -37.37141164 38.55353192 -38.94189453 38.73754883 C-56.84438654 40.86241072 -74.60616569 43.40990912 -92.18212891 47.4831543 C-95.55131628 48.25920611 -98.92749703 48.99957306 -102.3046875 49.73999023 C-155.68976078 61.61959738 -206.96319896 80.13034337 -248.23046875 117.18530273 C-249.17664063 118.03479492 -250.1228125 118.88428711 -251.09765625 119.75952148 C-264.4113302 132.37545332 -275.45285242 149.36941732 -280.23046875 167.18530273 C-280.57335937 168.40088867 -280.91625 169.61647461 -281.26953125 170.86889648 C-283.76455007 181.02777558 -283.98807877 192.14509465 -279.04296875 201.49780273 C-277.81825183 203.42374922 -276.55336139 205.32542197 -275.23046875 207.18530273 C-274.83730469 207.8053418 -274.44414063 208.42538086 -274.0390625 209.06420898 C-267.66013868 218.07944081 -254.15624285 222.93408496 -244.64306641 227.74633789 C-227.99084016 236.2427163 -227.99084016 236.2427163 -226.41943359 240.25732422 C-226.23046875 242.18530273 -226.23046875 242.18530273 -227.35546875 243.91186523 C-231.70139064 246.86347052 -237.88819307 245.54349182 -242.8359375 244.78686523 C-264.5137891 239.73635215 -284.53447793 224.01777527 -296.24121094 205.44604492 C-303.3810984 193.57217213 -304.47643821 182.12421472 -304.58056641 168.60302734 C-304.59699922 167.04883721 -304.62411852 165.49471858 -304.66259766 163.94091797 C-305.30815884 137.62728262 -292.46375511 116.78664752 -274.87280273 97.9699707 C-249.64628189 71.51279136 -217.20703029 51.55279638 -184.23046875 36.18530273 C-183.49554199 35.83935059 -182.76061523 35.49339844 -182.00341797 35.13696289 C-158.54749211 24.2241558 -133.4242248 16.84951592 -108.23046875 11.18530273 C-107.01085449 10.90396484 -107.01085449 10.90396484 -105.76660156 10.61694336 C-83.03708502 5.43285437 -59.44592116 3.00633532 -36.23046875 1.18530273 C-35.21919922 1.09772705 -34.20792969 1.01015137 -33.16601562 0.91992188 C-22.11370818 0.05520687 -11.08105262 -0.00082942 0 0 Z " fill="#FDFDFD" transform="translate(981.23046875,965.814697265625)"/>
<path d="M0 0 C0.33 0 0.66 0 1 0 C1.07516846 0.65371582 1.15033691 1.30743164 1.2277832 1.98095703 C2.77998009 16.5698631 2.77998009 16.5698631 5.625 30.9375 C7.17446222 37.4468387 7.3180447 43.8418019 7.5 50.5 C7.14942093 65.59205783 7.14942093 65.59205783 12.703125 78.8203125 C17.4254214 81.24570963 22.85961578 80.7101418 28 80 C31.55423623 77.47102422 32.63748421 76.08754738 34 72 C34.71306558 64.33894305 34.71306558 64.33894305 32.5 57.1875 C31.05613843 55.92412112 29.61135234 54.66179385 28.1640625 53.40234375 C27.49117187 52.81582031 26.81828125 52.22929688 26.125 51.625 C25.43535156 51.03332031 24.74570312 50.44164062 24.03515625 49.83203125 C19.90201614 46.11141184 16.06241171 42.60513762 15 37 C17.55856207 39.45621958 19.85920686 42.02890563 22.125 44.75 C30.63657865 54.48011662 38.71970336 59.54324145 51.5625 60.6875 C53.37432205 60.80285946 55.18669091 60.91102206 57 61 C57 61.33 57 61.66 57 62 C54.79194476 62.0544452 52.58349446 62.09299283 50.375 62.125 C49.14523437 62.14820313 47.91546875 62.17140625 46.6484375 62.1953125 C43.05683959 62.0030428 40.33338825 61.30258556 37 60 C37.39992244 65.29897234 38.02146917 70.04048273 40 75 C43.74824333 77.75381143 47.48792268 78.98565704 52 80 C48.59068103 81.13643966 47.99664544 80.86747764 44.8125 79.5625 C44.09707031 79.27503906 43.38164063 78.98757813 42.64453125 78.69140625 C42.10183594 78.46324219 41.55914063 78.23507812 41 78 C40.75121094 78.54527344 40.50242187 79.09054687 40.24609375 79.65234375 C38.74322597 82.48376549 36.95339187 84.97440778 35.0625 87.5625 C34.37285156 88.51253906 33.68320312 89.46257812 32.97265625 90.44140625 C31.40632075 92.47298991 29.87141597 94.2576472 28 96 C29.77464029 91.04355514 32.54540204 87.11139258 35.5390625 82.81640625 C37.20032479 79.61381237 37.28289182 77.55710276 37 74 C36.45859375 74.71542969 35.9171875 75.43085937 35.359375 76.16796875 C32.8529247 79.17653906 30.16959519 81.70571858 27.25 84.3125 C26.49009766 84.9940918 26.49009766 84.9940918 25.71484375 85.68945312 C24.47967128 86.79644732 23.24027284 87.89872325 22 89 C22 86 22 86 24 84 C16.56500459 81.81360662 16.56500459 81.81360662 9.19921875 83.203125 C7.0091143 84.69812453 4.9760689 86.23351417 3 88 C2.01 87.505 2.01 87.505 1 87 C3.97 85.02 6.94 83.04 10 81 C9.34 79.35 8.68 77.7 8 76 C8 75.01 8 74.02 8 73 C7.34773437 73.04640625 6.69546875 73.0928125 6.0234375 73.140625 C1.69796633 73.31925803 -1.31937454 73.30820775 -5.3125 71.5 C-9.8515072 67.27766772 -13.40667313 62.32881999 -14 56 C-19.92863717 57.16651426 -25.38798394 58.75519358 -31 61 C-31 60.34 -31 59.68 -31 59 C-29.65427347 58.31645636 -28.2978105 57.6540391 -26.9375 57 C-26.18339844 56.62875 -25.42929687 56.2575 -24.65234375 55.875 C-21.35413532 54.78693124 -18.45362445 54.94335419 -15 55 C-16.72304448 51.37961464 -18.46512495 47.76908204 -20.22460938 44.16625977 C-20.81930657 42.94187371 -21.40893333 41.71501037 -21.99316406 40.4855957 C-25.24179164 33.65848844 -27.80973052 28.42162106 -34 24 C-34.875 20.6875 -34.875 20.6875 -35 18 C-34.34 18.99 -33.68 19.98 -33 21 C-32.01 22.32 -31.02 23.64 -30 25 C-30.33 21.04 -30.66 17.08 -31 13 C-30.34 13.33 -29.68 13.66 -29 14 C-28.60855028 15.77987294 -28.29004441 17.5758183 -28 19.375 C-26.46987686 26.51817689 -23.43325842 32.24888591 -19.90966797 38.60546875 C-16.44692577 44.92752961 -13.72455129 51.32929612 -11.33300781 58.12573242 C-9.61227131 62.90072114 -7.79795586 67.60102207 -3 70 C0.54171978 70.16669318 0.54171978 70.16669318 4 70 C6.82334774 67.17665226 5.43275854 59.09464829 5.47070312 55.33618164 C5.34700665 43.62977552 3.32617118 32.35302214 1.13452148 20.88330078 C0.9278611 19.7906617 0.9278611 19.7906617 0.71702576 18.6759491 C0.33765759 16.69027275 -0.05530182 14.70720668 -0.44921875 12.72436523 C-1.04527655 8.69384138 -1.16372058 5.06674165 -1 1 C-0.67 0.67 -0.34 0.34 0 0 Z " fill="#D6D6D6" transform="translate(969,595)"/>
<path d="M0 0 C0.33 0 0.66 0 1 0 C3.6787551 11.15735524 4.49510082 21.74795247 4.625 33.1875 C4.66169789 35.54220102 4.70230249 37.89674668 4.74765015 40.251297 C4.77454832 41.69918993 4.7960379 43.14719711 4.81118774 44.59526062 C4.86269747 47.8679477 5.00338719 50.86771692 6 54 C6.72179443 54.11069824 7.44358887 54.22139648 8.18725586 54.33544922 C11.43884647 54.83940512 14.68811704 55.35700905 17.9375 55.875 C19.07380859 56.04902344 20.21011719 56.22304688 21.38085938 56.40234375 C22.46044922 56.57636719 23.54003906 56.75039063 24.65234375 56.9296875 C25.65257568 57.08679199 26.65280762 57.24389648 27.68334961 57.40576172 C28.83009155 57.69990967 28.83009155 57.69990967 30 58 C30.33 58.66 30.66 59.32 31 60 C17.73882048 58.48702631 4.84777708 56.67345731 -8 53 C-8 52.67 -8 52.34 -8 52 C-0.57142857 51.85714286 -0.57142857 51.85714286 3 53 C2.84007568 52.32074463 2.68015137 51.64148926 2.51538086 50.94165039 C1.92486094 47.57112718 1.82003797 44.35529776 1.75390625 40.93359375 C1.72092996 39.54621855 1.68771903 38.15884891 1.65429688 36.77148438 C1.60728868 34.61519676 1.56289445 32.45892515 1.52319336 30.30249023 C1.36731654 22.20902986 0.9841126 14.39655029 -0.67993164 6.43774414 C-1.00654361 3.95016175 -0.78494067 2.36102162 0 0 Z " fill="#C1C1C1" transform="translate(1024,531)"/>
<path d="M0 0 C0.99 0.86625 1.98 1.7325 3 2.625 C9.61244087 8.25149044 16.3090389 12.9340144 23.98852539 17.02099609 C28.05215034 19.24103955 30.90097752 21.63251229 34 25 C36.31 23.35 38.62 21.7 41 20 C39.59284684 23.40062014 37.97131772 24.89229698 35 27 C36.18190485 38.83459987 38.23748581 49.96359509 42.1171875 61.25 C43.0029456 64.00917569 43.16913047 66.12478208 43 69 C39.92278952 65.92278952 39.28522541 62.11117052 38.0625 58 C37.79381104 57.11022461 37.52512207 56.22044922 37.24829102 55.30371094 C35.50521922 49.31928811 34.31194887 43.41538503 33.4375 37.25 C32.22689357 28.17303359 32.22689357 28.17303359 27 21 C24.11060925 19.34159229 21.17620381 17.93839815 18.140625 16.56640625 C11.27934632 13.14430084 5.07167399 7.74789719 0 2 C0 1.34 0 0.68 0 0 Z " fill="#D7D7D7" transform="translate(1016,611)"/>
<path d="M0 0 C1.29289771 2.58579543 0.77240493 3.55175861 0.0625 6.3125 C-1.53745601 12.42759456 -1.53745601 12.42759456 0.3125 18.23828125 C0.869375 18.92277344 1.42625 19.60726562 2 20.3125 C2.556875 21.00988281 3.11375 21.70726562 3.6875 22.42578125 C4.120625 22.94527344 4.55375 23.46476563 5 24 C4.67 24.66 4.34 25.32 4 26 C3.24074219 25.08476563 2.48148438 24.16953125 1.69921875 23.2265625 C0.69551608 22.02587146 -0.30840142 20.82535997 -1.3125 19.625 C-1.81201172 19.02171875 -2.31152344 18.4184375 -2.82617188 17.796875 C-3.55610352 16.92675781 -3.55610352 16.92675781 -4.30078125 16.0390625 C-4.74591064 15.50490723 -5.19104004 14.97075195 -5.6496582 14.42041016 C-7.88264812 12.07155184 -9.60525663 11.05263245 -12.8125 10.625 C-16.90749627 11.10676427 -18.8313705 12.3824365 -22 15 C-25.61129021 19.68491703 -27.14198085 23.25852767 -27.09765625 29.109375 C-27.09443359 29.86347656 -27.09121094 30.61757813 -27.08789062 31.39453125 C-27.07951172 32.17183594 -27.07113281 32.94914063 -27.0625 33.75 C-27.05573242 34.93916016 -27.05573242 34.93916016 -27.04882812 36.15234375 C-27.03708565 38.10159508 -27.01915146 40.05080738 -27 42 C-30.65087106 36.52369341 -29.6221306 28.44247262 -29 22 C-27.68079793 16.49410872 -24.69108945 12.91406381 -19.92578125 9.9140625 C-16.41508537 8.24772815 -13.9331997 7.93756826 -10 8 C-7.6292396 9.0872277 -6.03805629 10.31860356 -4 12 C-3.79503906 11.21753906 -3.59007812 10.43507813 -3.37890625 9.62890625 C-3.10949219 8.61699219 -2.84007812 7.60507812 -2.5625 6.5625 C-2.29566406 5.55316406 -2.02882813 4.54382813 -1.75390625 3.50390625 C-1 1 -1 1 0 0 Z " fill="#D8D8D8" transform="translate(1007,580)"/>
<path d="M0 0 C0.495 0.99 0.495 0.99 1 2 C-0.0209375 1.67515625 -0.0209375 1.67515625 -1.0625 1.34375 C-10.69207682 -1.42219228 -21.18395325 -2.50328903 -31 0 C-33.20611118 0.11711454 -35.41581759 0.17503283 -37.625 0.1875 C-38.77226563 0.20167969 -39.91953125 0.21585938 -41.1015625 0.23046875 C-44 0 -44 0 -46 -2 C-11.03536848 -5.97567384 -11.03536848 -5.97567384 0 0 Z " fill="#DADADB" transform="translate(998,784)"/>
<path d="M0 0 C0.66 0 1.32 0 2 0 C0.67166417 5.66644526 -1.86735228 8.23969986 -6.125 11.875 C-6.68832031 12.37257813 -7.25164063 12.87015625 -7.83203125 13.3828125 C-9.21208945 14.59913498 -10.60480478 15.80107077 -12 17 C-12 14 -12 14 -10 12 C-12.64 11.67 -15.28 11.34 -18 11 C-15.50584854 8.50584854 -14.62044185 8.78528995 -11.1875 8.6875 C-7.24554795 8.37419456 -6.19212784 8.1489971 -2.9375 5.625 C-0.85896625 3.09181392 -0.85896625 3.09181392 0 0 Z " fill="#CECECE" transform="translate(1003,667)"/>
<path d="M0 0 C0.66 0.33 1.32 0.66 2 1 C2.58243157 3.06180776 3.0671635 5.15168393 3.5 7.25 C4.35727051 11.36862571 5.31637254 15.13926806 7 19 C6.34 19.33 5.68 19.66 5 20 C4.79375 19.443125 4.5875 18.88625 4.375 18.3125 C3.02422282 15.71960149 3.02422282 15.71960149 -0.0625 13.625 C-3 11 -3 11 -3.875 7.6875 C-3.91625 6.800625 -3.9575 5.91375 -4 5 C-3.01 6.485 -3.01 6.485 -2 8 C-1.01 9.32 -0.02 10.64 1 12 C0.67 8.04 0.34 4.08 0 0 Z " fill="#D4D4D4" transform="translate(938,608)"/>
<path d="M0 0 C0.33 0 0.66 0 1 0 C3.65442921 10.85471947 4.36822237 20.85786387 4 32 C3.67 32 3.34 32 3 32 C2.81824219 30.47632813 2.81824219 30.47632813 2.6328125 28.921875 C2.4641454 27.53117664 2.29482827 26.14055703 2.125 24.75 C2.03694092 24.02651367 1.94888184 23.30302734 1.8581543 22.55761719 C1.18372602 17.15026475 0.30826918 11.80374629 -0.73046875 6.453125 C-1.00211965 3.98070808 -0.77233738 2.34439998 0 0 Z " fill="#DADADA" transform="translate(1024,531)"/>
<path d="M0 0 C3.24262993 2.72220784 4.89759525 6.27994438 6.75 10 C7.07871094 10.6290625 7.40742187 11.258125 7.74609375 11.90625 C8.57925132 13.56553427 9.29763177 15.28126363 10 17 C9.67 17.99 9.34 18.98 9 20 C7.48987869 17.23456804 5.99369852 14.46183193 4.5 11.6875 C4.07074219 10.90181641 3.64148438 10.11613281 3.19921875 9.30664062 C2.79316406 8.54931641 2.38710938 7.79199219 1.96875 7.01171875 C1.59169922 6.31522217 1.21464844 5.61872559 0.82617188 4.90112305 C0 3 0 3 0 0 Z " fill="#EAEAEB" transform="translate(944,627)"/>
<path d="M0 0 C0.99 0.86625 1.98 1.7325 3 2.625 C9.32542132 8.02133529 15.43633586 12.48829879 23 16 C22.01 16.66 21.02 17.32 20 18 C4.21331762 7.53093695 4.21331762 7.53093695 0 2 C0 1.34 0 0.68 0 0 Z " fill="#C9C9C9" transform="translate(1016,611)"/>
<path d="M0 0 C0.66 0 1.32 0 2 0 C2 1.65 2 3.3 2 5 C-0.70879335 6.35439668 -3.00933268 6.06501451 -6 6 C-5.195625 5.38125 -4.39125 4.7625 -3.5625 4.125 C-0.96125481 2.25835959 -0.96125481 2.25835959 0 0 Z " fill="#F2F2F2" transform="translate(975,662)"/>
<path d="M0 0 C0.99 0.33 1.98 0.66 3 1 C1.02 3.31 -0.96 5.62 -3 8 C-3.33 7.01 -3.66 6.02 -4 5 C-2.0625 2.3125 -2.0625 2.3125 0 0 Z " fill="#DADADB" transform="translate(984,592)"/>
</svg>